<svg width="91" height="89" viewBox="0 0 91 89" fill="none" xmlns="http://www.w3.org/2000/svg">
<path d="M69.221 10.716C65.3751 10.2037 60.3056 10.1978 53.1699 10.1978C51.6199 10.1978 50.3633 8.95253 50.3633 7.41651C50.3633 5.88048 51.6199 4.63526 53.1699 4.63526H53.381C60.2584 4.63518 65.7056 4.63514 69.9687 5.20315C74.3564 5.78766 77.9074 7.01927 80.7081 9.79444C83.2692 12.3326 84.6681 14.7466 85.3244 18.4747C85.9146 21.826 85.9146 26.3457 85.9142 33.0177V33.3748C85.9142 34.9109 84.6576 36.1561 83.1076 36.1561C81.5575 36.1561 80.3009 34.9109 80.3009 33.3748C80.3009 26.2582 80.2901 22.2446 79.7946 19.4309C79.3553 16.9345 78.5615 15.5342 76.7387 13.7277C75.155 12.1583 72.9856 11.2177 69.221 10.716Z" fill="white"/>
<path d="M11.0704 55.625C11.0704 54.089 9.81379 52.8438 8.26373 52.8438C6.71363 52.8438 5.45708 54.089 5.45708 55.625L5.45704 55.9821C5.45685 62.6541 5.45674 67.1739 6.04688 70.5251C6.70334 74.2531 8.10206 76.6672 10.6634 79.2056C13.4639 81.9805 17.0151 83.212 21.4025 83.7968C25.6657 84.3646 31.113 84.3646 37.9902 84.3646H38.2013C39.7513 84.3646 41.008 83.1193 41.008 81.5833C41.008 80.0473 39.7513 78.8021 38.2013 78.8021C31.0656 78.8021 25.9962 78.7962 22.1504 78.2837C18.3855 77.7823 16.2163 76.8415 14.6326 75.2721C12.8096 73.4658 12.0162 72.0652 11.5766 69.5691C11.0812 66.7552 11.0704 62.7417 11.0704 55.625Z" fill="white"/>
<path d="M85.9142 55.625C85.9142 54.089 84.6576 52.8438 83.1076 52.8438C81.5575 52.8438 80.3009 54.089 80.3009 55.625C80.3009 62.7417 80.2901 66.7552 79.7946 69.5691C79.3553 72.0652 78.5615 73.4658 76.7387 75.2721C75.155 76.8415 72.9856 77.7823 69.221 78.2837C65.3751 78.7962 60.3056 78.8021 53.1699 78.8021C51.6199 78.8021 50.3633 80.0473 50.3633 81.5833C50.3633 83.1193 51.6199 84.3646 53.1699 84.3646H53.381C60.2584 84.3646 65.7056 84.3646 69.9687 83.7968C74.3564 83.212 77.9074 81.9805 80.7081 79.2056C83.2692 76.6672 84.6681 74.2531 85.3244 70.5251C85.9146 67.1739 85.9146 62.6541 85.9142 55.9821V55.625Z" fill="white"/>
<path d="M38.2013 4.63526H37.9902C31.113 4.63518 25.6656 4.63514 21.4025 5.20315C17.0151 5.78766 13.4639 7.01927 10.6634 9.79444C8.10206 12.3326 6.70334 14.7466 6.04688 18.4747C5.45674 21.826 5.45685 26.3456 5.45704 33.0175L5.45708 33.3748C5.45708 34.9109 6.71363 36.1561 8.26373 36.1561C9.81379 36.1561 11.0704 34.9109 11.0704 33.3748C11.0704 26.2582 11.0812 22.2446 11.5766 19.4309C12.0162 16.9345 12.8096 15.5342 14.6326 13.7277C16.2163 12.1583 18.3855 11.2177 22.1504 10.716C25.9962 10.2037 31.0656 10.1978 38.2013 10.1978C39.7513 10.1978 41.008 8.95253 41.008 7.41651C41.008 5.88048 39.7513 4.63526 38.2013 4.63526Z" fill="white"/>
<path fill-rule="evenodd" clip-rule="evenodd" d="M45.6856 34.3022C40.0019 34.3022 35.3945 38.8679 35.3945 44.5002C35.3945 50.1324 40.0019 54.6981 45.6856 54.6981C51.3692 54.6981 55.9766 50.1324 55.9766 44.5002C55.9766 38.8679 51.3692 34.3022 45.6856 34.3022ZM41.0078 44.5002C41.0078 41.9399 43.1019 39.8647 45.6856 39.8647C48.2692 39.8647 50.3633 41.9399 50.3633 44.5002C50.3633 47.0604 48.2692 49.1356 45.6856 49.1356C43.1019 49.1356 41.0078 47.0604 41.0078 44.5002Z" fill="white"/>
<path fill-rule="evenodd" clip-rule="evenodd" d="M20.7041 35.0457C25.4566 29.5829 33.6222 23.1772 45.6856 23.1772C57.749 23.1772 65.9149 29.5829 70.6671 35.0457L70.788 35.1845C71.8021 36.3493 72.8451 37.547 73.5617 38.9825C74.3629 40.5871 74.6877 42.31 74.6877 44.5002C74.6877 46.6903 74.3629 48.4132 73.5617 50.0178C72.8451 51.4533 71.8021 52.6511 70.788 53.8159L70.6671 53.9546C65.9149 59.4173 57.749 65.8231 45.6856 65.8231C33.6222 65.8231 25.4566 59.4173 20.7041 53.9546L20.5833 53.8159C19.5692 52.6511 18.5262 51.4533 17.8096 50.0178C17.0082 48.4132 16.6836 46.6903 16.6836 44.5002C16.6836 42.31 17.0082 40.5871 17.8096 38.9825C18.5263 37.547 19.5691 36.3493 20.5833 35.1845L20.7041 35.0457ZM45.6856 28.7397C35.8399 28.7397 29.0943 33.9205 24.9556 38.6777C23.7807 40.0283 23.2088 40.7121 22.8407 41.4493C22.5288 42.0738 22.2969 42.8907 22.2969 44.5002C22.2969 46.1096 22.5288 46.9265 22.8407 47.551C23.2088 48.2882 23.7807 48.972 24.9556 50.3226C29.0943 55.0797 35.8399 60.2606 45.6856 60.2606C55.5314 60.2606 62.2771 55.0797 66.4156 50.3226C67.5906 48.972 68.1624 48.2882 68.5307 47.551C68.8424 46.9265 69.0744 46.1096 69.0744 44.5002C69.0744 42.8907 68.8424 42.0738 68.5307 41.4493C68.1624 40.7121 67.5906 40.0283 66.4156 38.6777C62.2771 33.9205 55.5314 28.7397 45.6856 28.7397Z" fill="white"/>
</svg>
